<svg xmlns="http://www.w3.org/2000/svg" viewBox="0 0 2000 2000"><defs><style>.cls-1{fill:#104a79;}.cls-2{fill:#fff;}</style></defs><g id="Слой_3" data-name="Слой 3"><path class="cls-1" d="M1128.77,810.35c20.7-20.79,25.35-34.75,55.81-63.39,26.06-24.5,43.23-40.65,69.6-49.72,37.73-13,82.51-7.4,116.49,12.79,66.08,39.26,73,122.94,73.87,144.89,2.81,73.53-37.12,128.4-100.69,215.75a985.7,985.7,0,0,1-100.14,117.19s-43.5,61-71.39,118.8c-73.53,152.48-44.63,367.87-38.88,407.69C1143.86,1629,1175,1482.89,1281.17,1345a711.62,711.62,0,0,1,101.37-106.57l.08-.08c4.64-5.25,42.66-46.95,84.8-38,13.8,2.94,34.07,12.61,60.93,63.64,38.91,73.94,43.76,143.68,45,161,4.74,65.83,13.81,157.42,33.13,281.12a907.07,907.07,0,0,0,59.66-261c4.3-56.9-1.33-55.45-6.39-245-3.45-129-2.18-179.62-9.24-288.38-5.68-87.57-8.74-132.12-19.88-169-18.41-61-47.81-158.46-142.06-207.4-66.45-34.5-149.1-36.57-214.5-7.1-61.13,27.54-99.24,79-112.22,96.59-29.2,39.46-28.52,57.66-66.77,103.7-17.93,21.59-39.52,47.16-75.29,69.61A267.21,267.21,0,0,1,984,816.9a270.87,270.87,0,0,1-69.35,19.56l108,32.67C1076.92,854.11,1109.18,830,1128.77,810.35Z"/><circle class="cls-1" cx="559.24" cy="584.38" r="90.4"/><circle class="cls-1" cx="1280.7" cy="408.69" r="98.95"/><path class="cls-1" d="M787.3,1413.54c0,158.2-128.24,286.44-286.45,286.44s-286.41-128.24-286.41-286.44A286.37,286.37,0,0,1,362,1163c34.92,42,82.28,74.75,137,93.21-22.58-18.49-63.23-56.35-89.47-114.2a285.7,285.7,0,0,1,91.34-14.88C659.06,1127.12,787.3,1255.35,787.3,1413.54Z"/><path id="qol_oq" data-name="qol oq" class="cls-2" d="M545.41,1282.28c-106.7-26.42-184.08-75-236.75-155.58,25.5-15.21,66.17-27.8,94.44-38.28C448.64,1217.51,506.17,1246.61,545.41,1282.28Z"/><path class="cls-1" d="M1016.78,800c-16.78,9.39-42.86,9.57-72.66.14-45.68-14.44-58-30.21-127.12-64.73-55.21-27.56-79.68-33.65-98.19-36.62-18.07-2.91-45.8-5.17-76.7,6.16-21.44,7.86-23.93,15.15-42.8,18.66-27.11,5-40.65-6.49-66.77-9.07-29.43-2.9-51.77,8.27-78.76,20.54-67.45,30.69-179.59,154.19-150.66,304.76,19.21,100,95,182.38,195.86,216.4-28.64-23.44-86.35-78-106.84-165-1.93-8.23-25.29-112.65,21.92-169.16,6.15-7.36,21.57-25.82,39.89-23.79,15.4,1.7,25.25,17,30.82,25.68,14.27,22.2,8.46,33.8,19.89,73.54a327.12,327.12,0,0,0,20.34,52,322.1,322.1,0,0,0,26,43.83c8.39,1,186.61,25.8,258.86,190.39,49.53,112.82,29.23,245.71-52,341-18.73,25.12-47.94,56.56-91,80.76-127.56,71.65-265.88,17.49-288.37,8.27,126.2,66.49,273.48,62.23,378-13.7,102.26-74.26,128.83-205,132.86-228.73,16.91-99.69-11.06-179.6-25.51-214-5.1-10.21-10.43-22.16-8-23.88,2.25-1.58,10.06,6,12.84,8.73,51.13,49.75,66.52,118.9,66.52,118.9,22.85,102.72-36.72,202.44-46.57,218.46,16.58-12.6,100.86-79.27,111.28-192.78,1-11.24,7-88-38-161.28-30.15-49.07-73.08-80.13-146.89-133.54-41.41-30-59.79-46.85-96.56-80.64-23.46-21.55-35.31-34-43.15-53.93-1.53-3.88-22.12-58.39,7.19-94.5,21.39-26.35,57-27.7,85.26-28.77,44.52-1.68,55.46,12,134.57,27.74,41.37,8.25,65.53,12.9,98.09,11,38.89-2.22,70.2-24.2,90.93-32.9C1066.48,827.33,1041.67,812.51,1016.78,800Z"/></g></svg>